:FULLY-SPECIFIED
:FORCE-ALL-JOINTS-BE-3DOF
:DEGREES
1427
root -2.08881 13.7328 12.6636 366.459 26.4353 366.42
lfemur 26.78 0.14488 -10.73
ltibia 15.7013 0 0
lfoot -15.5167 34.8148 0
ltoes -23.6813 0 0
rfemur -65.7878 -21.8252 12.5247
rtibia 74.1511 0 0
rfoot -9.20712 11.8181 0
rtoes 5.22024 0 0
lowerback 9.81142 2.01241 -10.6019
upperback -3.44224 1.16158 -0.97722
thorax -9.49823 1.16319 4.70308
lowerneck 0.439515 -12.1537 -10.7396
upperneck 5.9765 -16.756 10.2293
head 3.41816 -8.32603 4.05081
lclavicle 1.05883e-14 7.89255e-15 0
lhumerus -75.5499 -17.8483 104.847
lradius 101.038 0 0
lwrist 58.9987 0 0
lhand -8.35429 41.996 0
lfingers 7.12502 0 0
lthumb 17.5697 -288.746 0
rclavicle 1.05883e-14 7.89255e-15 0
rhumerus 63.8059 -15.1173 -28.0147
rradius 82.5748 0 0
rwrist 27.907 0 0
rhand -45.0635 -31.4662 0
rfingers 7.12502 0 0
rthumb -17.8482 -60.7423 0
1428
root -2.09225 13.7302 12.6655 366.478 26.4814 366.439
lfemur 26.6794 0.127328 -10.7015
ltibia 15.8136 0 0
lfoot -15.5109 34.8038 0
ltoes -23.6056 0 0
rfemur -65.8021 -21.8304 12.5236
rtibia 74.1632 0 0
rfoot -9.2054 11.7636 0
rtoes 5.2352 0 0
lowerback 9.83141 2.00618 -10.6004
upperback -3.44403 1.15229 -0.973779
thorax -9.51035 1.15928 4.70715
lowerneck 0.409907 -12.1227 -10.7181
upperneck 5.98202 -16.7102 10.1856
head 3.41768 -8.30346 4.03673
lclavicle 1.05957e-14 8.33366e-15 0
lhumerus -75.4695 -17.8824 104.846
lradius 101.021 0 0
lwrist 58.9879 0 0
lhand -8.40688 41.9382 0
lfingers 7.12502 0 0
lthumb 17.519 -288.801 0
rclavicle 1.05957e-14 8.33366e-15 0
rhumerus 63.7424 -15.0441 -27.9929
rradius 82.5679 0 0
rwrist 27.8116 0 0
rhand -44.9781 -31.4453 0
rfingers 7.12502 0 0
rthumb -17.7659 -60.7244 0
1429
root -2.09568 13.7275 12.6674 366.501 26.534 366.46
lfemur 26.5701 0.107749 -10.6694
ltibia 15.9264 0 0
lfoot -15.5032 34.7883 0
ltoes -23.5442 0 0
rfemur -65.8178 -21.8305 12.5208
rtibia 74.1748 0 0
rfoot -9.20349 11.6925 0
rtoes 5.24638 0 0
lowerback 9.85746 2.00062 -10.5941
upperback -3.44369 1.14417 -0.970376
thorax -9.5236 1.15562 4.70819
lowerneck 0.375111 -12.0859 -10.6938
upperneck 5.98615 -16.6559 10.1367
head 3.41682 -8.2767 4.02115
lclavicle 1.05737e-14 8.72188e-15 0
lhumerus -75.3661 -17.9199 104.837
lradius 101.002 0 0
lwrist 58.9674 0 0
lhand -8.47045 41.8841 0
lfingers 7.12502 0 0
lthumb 17.4577 -288.852 0
rclavicle 1.05737e-14 8.72188e-15 0
rhumerus 63.6705 -14.9567 -27.9699
rradius 82.5563 0 0
rwrist 27.7032 0 0
rhand -44.8757 -31.4207 0
rfingers 7.12502 0 0
rthumb -17.667 -60.7033 0
1430
root -2.09912 13.7249 12.6694 366.53 26.5932 366.483
lfemur 26.452 0.0860906 -10.6337
ltibia 16.0391 0 0
lfoot -15.4933 34.7681 0
ltoes -23.4981 0 0
rfemur -65.835 -21.8255 12.5163
rtibia 74.186 0 0
rfoot -9.20151 11.604 0
rtoes 5.25378 0 0
lowerback 9.88989 1.99578 -10.5829
upperback -3.4411 1.13734 -0.96702
thorax -9.53803 1.15223 4.70601
lowerneck 0.334846 -12.043 -10.6666
upperneck 5.98878 -16.5926 10.0825
head 3.41555 -8.24554 4.004
lclavicle 1.05196e-14 9.05374e-15 0
lhumerus -75.2383 -17.961 104.821
lradius 100.982 0 0
lwrist 58.9367 0 0
lhand -8.54551 41.8342 0
lfingers 7.12502 0 0
lthumb 17.3853 -288.898 0
rclavicle 1.05196e-14 9.05374e-15 0
rhumerus 63.5899 -14.8543 -27.9458
rradius 82.5398 0 0
rwrist 27.5809 0 0
rhand -44.7553 -31.3921 0
rfingers 7.12502 0 0
rthumb -17.5509 -60.6788 0
1431
root -2.10255 13.7223 12.6713 366.564 26.6592 366.509
lfemur 26.325 0.062301 -10.5941
ltibia 16.1513 0 0
lfoot -15.481 34.7429 0
ltoes -23.4685 0 0
rfemur -65.8541 -21.8151 12.51
rtibia 74.1971 0 0
rfoot -9.19957 11.4972 0
rtoes 5.25738 0 0
lowerback 9.929 1.99171 -10.5663
upperback -3.43613 1.13188 -0.963719
thorax -9.55368 1.14912 4.70041
lowerneck 0.288834 -11.9936 -10.6362
upperneck 5.98982 -16.52 10.0226
head 3.41385 -8.20975 3.9852
lclavicle 1.04307e-14 9.32575e-15 0
lhumerus -75.0851 -18.0059 104.798
lradius 100.961 0 0
lwrist 58.8952 0 0
lhand -8.63259 41.7887 0
lfingers 7.12502 0 0
lthumb 17.3013 -288.94 0
rclavicle 1.04307e-14 9.32575e-15 0
rhumerus 63.5002 -14.7362 -27.9206
rradius 82.5181 0 0
rwrist 27.4441 0 0
rhand -44.6161 -31.3594 0
rfingers 7.12502 0 0
rthumb -17.4166 -60.6507 0
1432
root -2.10598 13.7196 12.6732 366.604 26.7324 366.536
lfemur 26.1889 0.0363273 -10.5505
ltibia 16.2623 0 0
lfoot -15.4662 34.7124 0
ltoes -23.4564 0 0
rfemur -65.8753 -21.799 12.5021
rtibia 74.2081 0 0
rfoot -9.1978 11.3713 0
rtoes 5.25718 0 0
lowerback 9.97509 1.98846 -10.5443
upperback -3.42866 1.12787 -0.960484
thorax -9.57058 1.14634 4.6912
lowerneck 0.236794 -11.9376 -10.6025
upperneck 5.98917 -16.4377 9.95677
head 3.41169 -8.16913 3.96467
lclavicle 1.03045e-14 9.53442e-15 0
lhumerus -74.9051 -18.0549 104.766
lradius 100.939 0 0
lwrist 58.8423 0 0
lhand -8.73221 41.7479 0
lfingers 7.12502 0 0
lthumb 17.2052 -288.976 0
rclavicle 1.03045e-14 9.53442e-15 0
rhumerus 63.4009 -14.6018 -27.8943
rradius 82.491 0 0
rwrist 27.2922 0 0
rhand -44.4573 -31.3223 0
rfingers 7.12502 0 0
rthumb -17.2633 -60.6187 0
1433
root -2.10942 13.717 12.6751 366.65 26.8128 366.567
lfemur 26.0436 0.00811722 -10.5027
ltibia 16.3717 0 0
lfoot -15.4486 34.6765 0
ltoes -23.4628 0 0
rfemur -65.8988 -21.7771 12.4924
rtibia 74.2193 0 0
rfoot -9.1963 11.2255 0
rtoes 5.25317 0 0
lowerback 10.0285 1.98607 -10.5163
upperback -3.41857 1.12541 -0.957323
thorax -9.58879 1.14389 4.6782
lowerneck 0.178446 -11.8745 -10.5653
upperneck 5.98674 -16.345 9.88485
head 3.40905 -8.12346 3.94236
lclavicle 1.01381e-14 9.67625e-15 0
lhumerus -74.6972 -18.108 104.725
lradius 100.916 0 0
lwrist 58.7776 0 0
lhand -8.84489 41.7121 0
lfingers 7.12502 0 0
lthumb 17.0965 -289.006 0
rclavicle 1.01381e-14 9.67625e-15 0
rhumerus 63.2918 -14.4503 -27.8669
rradius 82.4583 0 0
rwrist 27.1244 0 0
rhand -44.2778 -31.2806 0
rfingers 7.12502 0 0
rthumb -17.0902 -60.5827 0
1434
root -2.11285 13.7144 12.677 366.703 26.9009 366.6
lfemur 25.889 -0.0223818 -10.4505
ltibia 16.4789 0 0
lfoot -15.4279 34.6348 0
ltoes -23.489 0 0
rfemur -65.9249 -21.7491 12.4811
rtibia 74.2306 0 0
rfoot -9.19521 11.059 0
rtoes 5.24533 0 0
lowerback 10.0894 1.98461 -10.4823
upperback -3.40572 1.1246 -0.954244
thorax -9.60833 1.1418 4.6612
lowerneck 0.113511 -11.8041 -10.5246
upperneck 5.98244 -16.2417 9.80655
head 3.40592 -8.07252 3.91818
lclavicle 9.92898e-15 9.74777e-15 0
lhumerus -74.4601 -18.1655 104.675
lradius 100.891 0 0
lwrist 58.7004 0 0
lhand -8.97115 41.6816 0
lfingers 7.12502 0 0
lthumb 16.9748 -289.03 0
rclavicle 9.92898e-15 9.74777e-15 0
rhumerus 63.1724 -14.2809 -27.8385
rradius 82.4196 0 0
rwrist 26.94 0 0
rhand -44.077 -31.2341 0
rfingers 7.12502 0 0
rthumb -16.8964 -60.5425 0
1435
root -2.11629 13.7117 12.6789 366.762 26.9967 366.635
lfemur 25.7249 -0.0552221 -10.3937
ltibia 16.5833 0 0
lfoot -15.404 34.5872 0
ltoes -23.5359 0 0
rfemur -65.9538 -21.7147 12.4681
rtibia 74.2424 0 0
rfoot -9.19462 10.871 0
rtoes 5.23366 0 0
lowerback 10.1583 1.98412 -10.4418
upperback -3.39 1.12551 -0.951259
thorax -9.62924 1.14009 4.64002
lowerneck 0.0417073 -11.7262 -10.4801
upperneck 5.97617 -16.1273 9.72164
head 3.40225 -8.0161 3.89207
lclavicle 9.67437e-15 9.74548e-15 0
lhumerus -74.1926 -18.2276 104.616
lradius 100.865 0 0
lwrist 58.6103 0 0
lhand -9.11151 41.6567 0
lfingers 7.12502 0 0
lthumb 16.8394 -289.048 0
rclavicle 9.67437e-15 9.74548e-15 0
rhumerus 63.0424 -14.0931 -27.8089
rradius 82.3748 0 0
rwrist 26.7385 0 0
rhand -43.8539 -31.1825 0
rfingers 7.12502 0 0
rthumb -16.681 -60.498 0
1436
root -2.11972 13.7091 12.6808 366.829 27.1005 366.674
lfemur 25.5512 -0.0904563 -10.3322
ltibia 16.6844 0 0
lfoot -15.3767 34.5334 0
ltoes -23.6046 0 0
rfemur -65.9857 -21.6738 12.4534
rtibia 74.2547 0 0
rfoot -9.19466 10.6606 0
rtoes 5.21813 0 0
lowerback 10.2353 1.98466 -10.3946
upperback -3.37128 1.12825 -0.948374
thorax -9.65157 1.13879 4.61446
lowerneck -0.0372435 -11.6403 -10.4317
upperneck 5.96783 -16.0014 9.62987
head 3.39804 -7.95398 3.86395
lclavicle 9.37161e-15 9.6659e-15 0
lhumerus -73.8935 -18.2944 104.547
lradius 100.837 0 0
lwrist 58.5067 0 0
lhand -9.26649 41.6378 0
lfingers 7.12502 0 0
lthumb 16.6899 -289.06 0
rclavicle 9.37161e-15 9.6659e-15 0
rhumerus 62.9014 -13.886 -27.7784
rradius 82.3235 0 0
rwrist 26.519 0 0
rhand -43.6076 -31.1257 0
rfingers 7.12502 0 0
rthumb -16.4434 -60.4488 0
1437
root -2.14286 13.7142 12.6786 366.853 27.2222 366.666
lfemur 25.3781 -0.132855 -10.2587
ltibia 16.7704 0 0
lfoot -15.3474 34.4745 0
ltoes -23.6984 0 0
rfemur -66.0261 -21.6293 12.4338
rtibia 74.2681 0 0
rfoot -9.19087 10.4208 0
rtoes 5.20354 0 0
lowerback 10.3221 1.9866 -10.3424
upperback -3.34904 1.13252 -0.946552
thorax -9.67566 1.13782 4.58446
lowerneck -0.126139 -11.5481 -10.3815
upperneck 5.95747 -15.8658 9.5327
head 3.39325 -7.8871 3.83461
lclavicle 9.02345e-15 9.49531e-15 0
lhumerus -73.5884 -18.3542 104.484
lradius 100.8 0 0
lwrist 58.3948 0 0
lhand -9.44066 41.6249 0
lfingers 7.12502 0 0
lthumb 16.5219 -289.065 0
rclavicle 9.02345e-15 9.49531e-15 0
rhumerus 62.7703 -13.6674 -27.7309
rradius 82.2554 0 0
rwrist 26.2904 0 0
rhand -43.3393 -31.0605 0
rfingers 7.12502 0 0
rthumb -16.1845 -60.3928 0
1438
root -2.166 13.7193 12.6764 366.789 27.3703 366.568
lfemur 25.2149 -0.186646 -10.1668
ltibia 16.8312 0 0
lfoot -15.3177 34.4117 0
ltoes -23.8187 0 0
rfemur -66.0796 -21.5842 12.4064
rtibia 74.2831 0 0
rfoot -9.17909 10.1464 0
rtoes 5.19421 0 0
lowerback 10.4197 1.99023 -10.287
upperback -3.32296 1.13796 -0.946647
thorax -9.70178 1.13709 4.55021
lowerneck -0.227144 -11.4514 -10.3314
upperneck 5.94527 -15.7228 9.43175
head 3.38789 -7.81658 3.80484
lclavicle 8.63574e-15 9.22577e-15 0
lhumerus -73.3017 -18.3961 104.442
lradius 100.747 0 0
lwrist 58.2799 0 0
lhand -9.63746 41.6176 0
lfingers 7.12502 0 0
lthumb 16.3321 -289.062 0
rclavicle 8.63574e-15 9.22577e-15 0
rhumerus 62.6682 -13.445 -27.6522
rradius 82.1612 0 0
rwrist 26.0615 0 0
rhand -43.0511 -30.9843 0
rfingers 7.12502 0 0
rthumb -15.9063 -60.3281 0
1439
root -2.18913 13.7244 12.6742 366.644 27.5431 366.387
lfemur 25.0603 -0.251067 -10.0579
ltibia 16.8691 0 0
lfoot -15.2875 34.3452 0
ltoes -23.9641 0 0
rfemur -66.1451 -21.5383 12.3716
rtibia 74.2993 0 0
rfoot -9.15988 9.83893 0
rtoes 5.18944 0 0
lowerback 10.5276 1.99545 -10.2284
upperback -3.29324 1.14452 -0.948506
thorax -9.72984 1.13658 4.51188
lowerneck -0.339584 -11.3501 -10.2813
upperneck 5.93128 -15.5725 9.32702
head 3.38199 -7.74247 3.77459
lclavicle 8.21048e-15 8.86249e-15 0
lhumerus -73.0309 -18.4218 104.419
lradius 100.678 0 0
lwrist 58.1618 0 0
lhand -9.85575 41.6157 0
lfingers 7.12502 0 0
lthumb 16.1215 -289.054 0
rclavicle 8.21048e-15 8.86249e-15 0
rhumerus 62.5924 -13.2184 -27.5445
rradius 82.0429 0 0
rwrist 25.8314 0 0
rhand -42.7437 -30.8979 0
rfingers 7.12502 0 0
rthumb -15.6095 -60.2554 0
1440
root -2.21227 13.7295 12.6721 366.426 27.7391 366.13
lfemur 24.9128 -0.325354 -9.93324
ltibia 16.8865 0 0
lfoot -15.2568 34.275 0
ltoes -24.1332 0 0
rfemur -66.2216 -21.4914 12.3299
rtibia 74.3165 0 0
rfoot -9.1338 9.50037 0
rtoes 5.1885 0 0
lowerback 10.6453 2.00214 -10.1666
upperback -3.26007 1.15216 -0.951977
thorax -9.75974 1.13629 4.46967
lowerneck -0.46279 -11.2444 -10.2311
upperneck 5.9156 -15.415 9.21851
head 3.37557 -7.66483 3.74381
lclavicle 7.74968e-15 8.41067e-15 0
lhumerus -72.7731 -18.4329 104.413
lradius 100.596 0 0
lwrist 58.0402 0 0
lhand -10.0944 41.6189 0
lfingers 7.12502 0 0
lthumb 15.8914 -289.039 0
rclavicle 7.74968e-15 8.41067e-15 0
rhumerus 62.54 -12.9871 -27.4104
rradius 81.9021 0 0
rwrist 25.5996 0 0
rhand -42.4176 -30.8018 0
rfingers 7.12502 0 0
rthumb -15.2946 -60.175 0
